<svg
  width="600"
  height="600"
  viewBox="0 0 600 600"
  xmlns="http://www.w3.org/2000/svg"
>
  <g transform="translate(300,300)">
    <path d="M93.8,-131.9C133.3,-120.7,184.9,-114.3,208.4,-87.8C231.9,-61.3,227.3,-14.7,217.2,28.8C207.2,72.2,191.6,112.4,167.6,151.5C143.5,190.6,110.9,228.7,74.4,227.6C37.9,226.4,-2.4,186.1,-48.1,170C-93.8,153.8,-144.8,161.7,-163.2,141.1C-181.6,120.4,-167.5,71.2,-177.2,23.7C-186.9,-23.9,-220.3,-69.9,-209.9,-97.1C-199.5,-124.4,-145.1,-132.9,-102.8,-142.7C-60.6,-152.6,-30.3,-163.8,-1.5,-161.4C27.2,-159,54.4,-143,93.8,-131.9Z" fill="#030027" />
  </g>
</svg>
  